<svg width="148" height="32" viewBox="0 0 148 32" fill="none" xmlns="http://www.w3.org/2000/svg">
<path d="M35.9993 29.9731V3.60656C35.9993 3.3247 36.063 3.151 36.1922 3.08545C36.3198 3.02154 36.4735 2.98877 36.6534 2.98877H38.923L39.116 7.92288L38.3082 9.1945C38.385 9.91389 38.4423 10.5759 38.4815 11.1806C38.5191 11.7853 38.5714 12.4784 38.6352 13.2617C38.699 14.0467 38.7628 14.8546 38.8265 15.6903C38.8903 16.526 38.9426 17.3552 38.9802 18.1762C39.0179 18.9988 39.0375 19.7444 39.0375 20.4114L39.1143 29.3537C39.1143 29.5602 39.0571 29.7011 38.941 29.7781C38.8249 29.8552 38.5502 29.9076 38.1136 29.9322C37.6786 29.96 36.9739 29.9731 35.9993 29.9731ZM42.8083 24.0362L40.8084 17.8681C40.7316 17.6633 40.6089 17.252 40.4438 16.6342C40.277 16.018 40.0709 15.2921 39.8289 14.4563C39.5853 13.6223 39.3416 12.7669 39.098 11.8934C38.8543 11.02 38.6303 10.1974 38.4243 9.4272C38.2182 8.65701 37.9762 7.79506 37.6933 6.84462L38.9247 2.99041L42.5793 14.6694C42.7069 15.0545 42.8426 15.492 42.9832 15.9803C43.1239 16.4687 43.253 16.9373 43.3675 17.388C43.4836 17.837 43.6308 18.3581 43.8107 18.9496C43.9382 18.3581 44.0608 17.8386 44.1753 17.388C44.2914 16.939 44.4124 16.4818 44.54 16.0197C44.6675 15.5576 44.795 15.1331 44.9242 14.748L48.3091 3.6082L49.6941 7.00029C49.4374 7.92452 49.2068 8.76025 49.0024 9.50586C48.7964 10.2515 48.5724 11.061 48.3287 11.9344C48.0851 12.8078 47.848 13.6567 47.6174 14.4793C47.3868 15.3019 47.1808 16.0147 47.0026 16.6194C46.8227 17.2241 46.6952 17.6403 46.6183 17.873L44.5792 23.7314C44.5023 23.9378 44.3601 24.0394 44.1557 24.0394H42.8083V24.0362ZM48.2699 29.9731L48.4236 20.567C48.4236 19.8985 48.4432 19.1545 48.4808 18.3319C48.5184 17.5092 48.5707 16.662 48.6345 15.787C48.6983 14.9135 48.7555 14.0713 48.8078 13.2617C48.8585 12.4522 48.9092 11.7263 48.9616 11.0839C49.0122 10.4416 49.0629 9.73527 49.1153 8.96345L48.3075 8.23095V3.60656C48.3843 3.4263 48.4546 3.27882 48.5184 3.16411C48.5822 3.04776 48.7163 2.99041 48.9223 2.99041C49.7693 2.99041 50.3711 2.99041 50.7308 2.99041C51.089 2.99041 51.3326 2.99041 51.4618 2.99041V29.357C51.4618 29.5635 51.416 29.7044 51.3277 29.7814C51.2378 29.8584 50.9745 29.9109 50.5395 29.9355C50.1029 29.96 49.3475 29.9731 48.2699 29.9731Z" fill="#85CFCB"/>
<path d="M60.6172 30.3583C59.6426 30.3583 58.7776 30.2354 58.0205 29.9929C57.2634 29.7487 56.6289 29.28 56.1171 28.5852C55.6036 27.8921 55.2194 26.8826 54.9626 25.5586C54.7059 24.2361 54.5784 22.4942 54.5784 20.336C54.5784 16.8161 55.1425 14.2647 56.2708 12.685C57.3991 11.1036 58.964 10.3138 60.9639 10.3138C62.3227 10.3138 63.4445 10.5973 64.3291 11.1626C65.2138 11.728 65.8744 12.7309 66.311 14.1696C66.7476 15.6084 66.9651 17.6256 66.9651 20.2213C66.9651 23.8199 66.4271 26.4074 65.3495 27.9887C64.2719 29.5684 62.6939 30.3583 60.6172 30.3583ZM60.694 27.6987C61.2582 27.6987 61.752 27.5004 62.1739 27.1006C62.5974 26.7024 62.9359 25.9633 63.1926 24.8851C63.4494 23.8052 63.5769 22.2631 63.5769 20.259C63.5769 18.2041 63.4739 16.6555 63.2695 15.615C63.0635 14.5744 62.7691 13.8747 62.3848 13.5142C62.0006 13.1553 61.4871 12.975 60.8461 12.975C60.282 12.975 59.7816 13.1749 59.3466 13.5731C58.91 13.9713 58.5699 14.7104 58.3279 15.7887C58.0843 16.8686 57.9633 18.4106 57.9633 20.4147C57.9633 21.9829 58.027 23.2545 58.1546 24.2312C58.2821 25.2079 58.4554 25.9469 58.6746 26.4467C58.892 26.9482 59.1798 27.2825 59.5396 27.4496C59.8993 27.6151 60.2836 27.6987 60.694 27.6987Z" fill="#85CFCB"/>
<path d="M73.733 30.2042C73.3488 30.2042 73.0593 30.024 72.868 29.6651C72.675 29.3062 72.5033 28.8556 72.348 28.3165L68.4235 11.6641C68.3712 11.3298 68.3859 11.0987 68.4628 10.9692C68.5396 10.8414 68.8209 10.7644 69.3082 10.7382C69.7954 10.7136 70.6163 10.7005 71.7708 10.7005L73.0021 16.8685C73.1803 17.8714 73.3667 18.9366 73.5597 20.0673C73.7526 21.198 73.9194 22.2582 74.0601 23.248C74.2007 24.2378 74.3495 25.3619 74.5032 26.6204H74.5801C74.7338 25.3619 74.8744 24.2378 75.0019 23.248C75.1295 22.2598 75.2848 21.198 75.4631 20.0673C75.6429 18.9366 75.8343 17.8698 76.0403 16.8685L77.0787 11.3953C77.1293 11.1643 77.1997 11.0037 77.2896 10.9135C77.3795 10.8234 77.6494 10.766 78.0974 10.7398C78.5454 10.7152 79.296 10.7021 80.3474 10.7021L75.9242 30.0912C75.6413 30.142 75.2701 30.1747 74.809 30.1878C74.3479 30.1977 73.9898 30.2042 73.733 30.2042Z" fill="#85CFCB"/>
<path d="M83.1174 29.9732V12.1262C83.1174 11.6378 83.2074 11.297 83.3872 11.1053C83.5671 10.9135 83.8876 10.7972 84.3487 10.7579C84.8099 10.7202 85.464 10.7005 86.311 10.7005V29.357C86.311 29.5635 86.2652 29.7044 86.1769 29.7815C86.087 29.8585 85.8172 29.9109 85.3691 29.9355C84.9194 29.9601 84.1689 29.9732 83.1174 29.9732Z" fill="#85CFCB"/>
<path d="M95.7334 30.3582C94.8618 30.3582 94.0475 30.2353 93.2904 29.9928C92.5333 29.7487 91.8808 29.3062 91.3297 28.6638C90.7787 28.0215 90.3552 27.1087 90.0608 25.9272C89.7648 24.7457 89.6177 23.2168 89.6177 21.3405C89.6177 18.9251 89.8106 16.9849 90.1949 15.5199C90.5792 14.0549 91.091 12.9504 91.7336 12.2048C92.373 11.4592 93.1039 10.9594 93.9248 10.7021C94.7457 10.4465 95.5796 10.317 96.425 10.317C98.0406 10.317 99.2589 10.8316 100.08 11.859C100.901 12.8865 101.311 14.4416 101.311 16.5227C101.311 17.3716 101.278 18.245 101.215 19.1447C101.149 20.0443 101.028 20.8407 100.85 21.5339C99.9767 21.7141 99.0038 21.842 97.9262 21.919C96.8486 21.996 95.8233 22.055 94.8487 22.0927C93.8741 22.1304 92.7589 22.15 91.5031 22.15L91.5407 19.6051C92.5153 19.6314 93.3541 19.6379 94.0605 19.6248C94.7653 19.6117 95.4848 19.574 96.2157 19.5085C96.9467 19.4445 97.5681 19.3347 98.0815 19.1807C98.1584 18.8218 98.2091 18.4351 98.2352 18.0238C98.2614 17.6125 98.2745 17.2274 98.2745 16.8669C98.2483 15.4789 98.088 14.4957 97.7937 13.9172C97.4994 13.3388 96.9287 13.0504 96.0817 13.0504C95.6451 13.0504 95.2281 13.1716 94.8307 13.4158C94.4334 13.66 94.0818 14.0844 93.7727 14.6874C93.4653 15.2921 93.2266 16.1213 93.0598 17.1733C92.893 18.227 92.8096 19.5773 92.8096 21.2209C92.8096 22.4286 92.8799 23.4315 93.0206 24.2279C93.1612 25.0243 93.3803 25.6421 93.6746 26.078C93.969 26.5155 94.3418 26.8301 94.7898 27.0219C95.2379 27.2136 95.784 27.3103 96.425 27.3103C97.1936 27.3103 97.9572 27.2087 98.7143 27.0022C99.4698 26.7974 100.157 26.5008 100.771 26.1157C100.899 26.4237 100.984 26.7777 101.022 27.1759C101.059 27.5741 101.079 27.9281 101.079 28.2361C101.079 28.6212 100.835 28.9817 100.348 29.316C99.8606 29.6503 99.2131 29.9076 98.4053 30.0862C97.5991 30.2681 96.7079 30.3582 95.7334 30.3582Z" fill="#85CFCB"/>
<path d="M126.274 30.3583C124.735 30.3583 123.556 30.1272 122.735 29.6651C121.914 29.203 121.344 28.4951 121.023 27.5446C120.703 26.5942 120.542 25.3996 120.542 23.9592V11.315C120.542 11.1102 120.58 10.9676 120.657 10.8906C120.734 10.8136 120.997 10.7628 121.445 10.7365C121.893 10.712 122.657 10.6989 123.733 10.6989V24.2295C123.733 25.0522 123.803 25.7126 123.945 26.214C124.086 26.7154 124.343 27.076 124.714 27.2939C125.085 27.5119 125.618 27.6216 126.31 27.6216C126.67 27.6216 127.093 27.5708 127.579 27.4676C128.066 27.366 128.514 27.1858 128.926 26.9285V11.3166C128.926 11.1118 128.97 10.9692 129.06 10.8922C129.15 10.8152 129.407 10.7644 129.829 10.7382C130.251 10.7136 130.988 10.7005 132.04 10.7005V28.9719C131.296 29.3832 130.411 29.7175 129.386 29.9748C128.365 30.2288 127.325 30.3583 126.274 30.3583Z" fill="#85CFCB"/>
<path d="M140.467 30.3583C139.442 30.3583 138.549 30.255 137.794 30.0502C137.037 29.8453 136.428 29.5619 135.967 29.2013V3.10514C135.967 2.61681 136.051 2.27104 136.217 2.06457C136.384 1.85973 136.692 1.73683 137.141 1.69914C137.589 1.66145 138.237 1.64178 139.084 1.64178V11.664C139.622 11.2527 140.219 10.925 140.873 10.6808C141.527 10.4367 142.302 10.3154 143.2 10.3154C144.225 10.3154 145.084 10.5596 145.777 11.0479C146.47 11.5362 146.995 12.3326 147.353 13.4371C147.713 14.5416 147.893 16.0328 147.893 17.9091C147.893 20.1197 147.746 21.9829 147.45 23.4987C147.155 25.0161 146.745 26.2222 146.218 27.1218C145.692 28.0215 145.11 28.7081 144.469 29.1833C143.828 29.6585 143.161 29.9732 142.469 30.1272C141.777 30.2812 141.108 30.3583 140.467 30.3583ZM140.891 27.5823C141.223 27.5823 141.596 27.4807 142.006 27.2742C142.417 27.0694 142.801 26.6581 143.161 26.0403C143.519 25.4241 143.82 24.518 144.065 23.3233C144.308 22.1287 144.429 20.554 144.429 18.6006C144.429 17.2127 144.326 16.1213 144.122 15.3249C143.916 14.5285 143.628 13.9631 143.257 13.6288C142.884 13.2945 142.392 13.1274 141.776 13.1274C141.288 13.1274 140.821 13.211 140.371 13.3781C139.923 13.5453 139.493 13.8222 139.082 14.2073V27.0825C139.262 27.212 139.491 27.3267 139.774 27.4299C140.059 27.5315 140.43 27.5823 140.891 27.5823Z" fill="#85CFCB"/>
<path d="M84.3487 4.65367C83.8876 4.693 83.5655 4.80771 83.3872 5.00107C83.2074 5.19444 83.1174 5.53528 83.1174 6.02198V7.83273C83.9628 7.83273 84.6169 7.81307 85.0797 7.77538C85.5408 7.73605 85.8629 7.62134 86.0412 7.42798C86.2211 7.23461 86.311 6.89376 86.311 6.40707V4.59631C85.4656 4.59631 84.8099 4.61598 84.3487 4.65367Z" fill="#85CFCB"/>
<path d="M105.351 16.9062V13.9762H104.643H115.097V16.9062H105.351ZM104.441 29.9731V3.60656C104.441 3.40172 104.478 3.25915 104.555 3.18214C104.632 3.10512 104.889 3.05432 105.324 3.0281C105.76 3.00188 106.503 2.98877 107.554 2.98877V29.3554C107.554 29.5618 107.517 29.7028 107.44 29.7798C107.363 29.8568 107.106 29.9092 106.671 29.9338C106.236 29.96 105.492 29.9731 104.441 29.9731ZM113.671 29.9731V3.60656C113.671 3.40172 113.716 3.25915 113.806 3.18214C113.895 3.10512 114.152 3.05432 114.574 3.0281C114.998 3.00188 115.735 2.98877 116.786 2.98877V29.3554C116.786 29.5618 116.749 29.7028 116.67 29.7798C116.594 29.8568 116.337 29.9092 115.902 29.9338C115.467 29.96 114.724 29.9731 113.671 29.9731Z" fill="#85CFCB"/>
<path d="M104.076 13.8796C103.615 13.9189 103.293 14.0336 103.115 14.227C102.935 14.4203 102.845 14.7612 102.845 15.2479V17.0586C103.69 17.0586 104.344 17.039 104.807 17.0013C105.268 16.9619 105.59 16.8472 105.768 16.6539C105.948 16.4605 106.038 16.1197 106.038 15.633V13.8222C105.191 13.8222 104.537 13.8419 104.076 13.8796Z" fill="#85CFCB"/>
<path d="M26.8189 2.61348V20.3065C26.8189 21.039 25.9359 21.406 25.4192 20.8882L16.5907 12.0409C16.2702 11.7197 16.2702 11.1986 16.5907 10.8791L25.4192 2.03175C25.9343 1.51392 26.8189 1.88099 26.8189 2.61348Z" fill="#85CFCB"/>
<path d="M16.5434 16.5817L1.39974 31.7577C0.883012 32.2755 0 31.9084 0 31.1759V0.824055C0 0.091559 0.883012 -0.275508 1.39974 0.24232L16.5434 15.4183C16.8639 15.7394 16.8639 16.2606 16.5434 16.5817Z" fill="#219897"/>
</svg>
